<?xml version="1.0" encoding="UTF-8" standalone="no"?>
<!DOCTYPE svg PUBLIC "-//W3C//DTD SVG 1.0//EN" "http://www.w3.org/TR/2001/PR-SVG-20010719/DTD/svg10.dtd">
<svg width="43cm" height="23cm" viewBox="218 -461 846 457" xmlns="http://www.w3.org/2000/svg" xmlns:xlink="http://www.w3.org/1999/xlink">
  <g>
    <rect style="fill: #ffffff" x="580" y="-160" width="160.25" height="54"/>
    <rect style="fill: none; fill-opacity:0; stroke-width: 2; stroke: #0000ff" x="580" y="-160" width="160.25" height="54"/>
    <text font-size="12.8" style="fill: #000000;text-anchor:middle;font-family:sans-serif;font-style:normal;font-weight:normal" x="660.125" y="-137.1">
      <tspan x="660.125" y="-137.1">CnfUtils</tspan>
      <tspan x="660.125" y="-121.1">KernelHaven_CnfUtils</tspan>
    </text>
  </g>
  <g>
    <rect style="fill: #ffffff" x="580" y="-220" width="152.6" height="54"/>
    <rect style="fill: none; fill-opacity:0; stroke-width: 2; stroke: #0000ff" x="580" y="-220" width="152.6" height="54"/>
    <text font-size="12.8" style="fill: #000000;text-anchor:middle;font-family:sans-serif;font-style:normal;font-weight:normal" x="656.3" y="-197.1">
      <tspan x="656.3" y="-197.1">IOUtils</tspan>
      <tspan x="656.3" y="-181.1">KernelHaven_IOUtils</tspan>
    </text>
  </g>
  <g>
    <rect style="fill: #ffffff" x="220" y="-260" width="216.15" height="54"/>
    <rect style="fill: none; fill-opacity:0; stroke-width: 2; stroke: #000000" x="220" y="-260" width="216.15" height="54"/>
    <text font-size="12.8" style="fill: #000000;text-anchor:middle;font-family:sans-serif;font-style:normal;font-weight:normal" x="328.075" y="-237.1">
      <tspan x="328.075" y="-237.1">NonBooleanUtils</tspan>
      <tspan x="328.075" y="-221.1">KernelHaven_NonBooleanUtils</tspan>
    </text>
  </g>
  <g>
    <rect style="fill: #ffffff" x="580" y="-280" width="157.35" height="54"/>
    <rect style="fill: none; fill-opacity:0; stroke-width: 2; stroke: #0000ff" x="580" y="-280" width="157.35" height="54"/>
    <text font-size="12.8" style="fill: #000000;text-anchor:middle;font-family:sans-serif;font-style:normal;font-weight:normal" x="658.675" y="-257.1">
      <tspan x="658.675" y="-257.1">DBUtils</tspan>
      <tspan x="658.675" y="-241.1">KernelHaven_DBUtils</tspan>
    </text>
  </g>
  <g>
    <rect style="fill: #ffffff" x="540" y="-60" width="249.7" height="54"/>
    <rect style="fill: none; fill-opacity:0; stroke-width: 2; stroke: #00ff00" x="540" y="-60" width="249.7" height="54"/>
    <text font-size="12.8" style="fill: #000000;text-anchor:middle;font-family:sans-serif;font-style:normal;font-weight:normal" x="664.85" y="-37.1">
      <tspan x="664.85" y="-37.1">FeatureEffectAnalysis</tspan>
      <tspan x="664.85" y="-21.1">KernelHaven_FeatureEffectAnalysis</tspan>
    </text>
  </g>
  <g>
    <line style="fill: none; fill-opacity:0; stroke-width: 2; stroke: #000000" x1="663.527" y1="-60.9907" x2="661.659" y2="-100.542"/>
    <polyline style="fill: none; fill-opacity:0; stroke-width: 2; stroke: #000000" points="667.019,-93.0228 661.553,-102.776 657.031,-92.5509 "/>
  </g>
  <g>
    <rect style="fill: #ffffff" x="220" y="-180" width="191.5" height="54"/>
    <rect style="fill: none; fill-opacity:0; stroke-width: 2; stroke: #00ff00" x="220" y="-180" width="191.5" height="54"/>
    <text font-size="12.8" style="fill: #000000;text-anchor:middle;font-family:sans-serif;font-style:normal;font-weight:normal" x="315.75" y="-157.1">
      <tspan x="315.75" y="-157.1">MetricHaven</tspan>
      <tspan x="315.75" y="-141.1">KernelHaven_MetricHaven</tspan>
    </text>
  </g>
  <g>
    <rect style="fill: #ffffff" x="220" y="-120" width="217.5" height="54"/>
    <rect style="fill: none; fill-opacity:0; stroke-width: 2; stroke: #00ff00" x="220" y="-120" width="217.5" height="54"/>
    <text font-size="12.8" style="fill: #000000;text-anchor:middle;font-family:sans-serif;font-style:normal;font-weight:normal" x="328.75" y="-97.1">
      <tspan x="328.75" y="-97.1">UnDeadAnalyzer</tspan>
      <tspan x="328.75" y="-81.1">KernelHaven_UnDeadAnalyzer</tspan>
    </text>
  </g>
  <g>
    <line style="fill: none; fill-opacity:0; stroke-width: 2; stroke: #000000" x1="438.504" y1="-106.248" x2="574.581" y2="-122.674"/>
    <polyline style="fill: none; fill-opacity:0; stroke-width: 2; stroke: #000000" points="567.472,-116.78 576.801,-122.942 566.274,-126.708 "/>
  </g>
  <g>
    <rect style="fill: #ffffff" x="220" y="-60" width="280.05" height="54"/>
    <rect style="fill: none; fill-opacity:0; stroke-width: 2; stroke: #00ff00" x="220" y="-60" width="280.05" height="54"/>
    <text font-size="12.8" style="fill: #000000;text-anchor:middle;font-family:sans-serif;font-style:normal;font-weight:normal" x="360.025" y="-37.1">
      <tspan x="360.025" y="-37.1">ConfigurationMismatchAnalysis</tspan>
      <tspan x="360.025" y="-21.1">KernelHaven_Configuration_Mismatches</tspan>
    </text>
  </g>
  <g>
    <line style="fill: none; fill-opacity:0; stroke-width: 2; stroke: #000000" x1="501.014" y1="-33" x2="534.524" y2="-33"/>
    <polyline style="fill: none; fill-opacity:0; stroke-width: 2; stroke: #000000" points="526.76,-28 536.76,-33 526.76,-38 "/>
  </g>
  <g>
    <line style="fill: none; fill-opacity:0; stroke-width: 2; stroke: #000000" x1="444.025" y1="-60.9907" x2="574.758" y2="-104.554"/>
    <polyline style="fill: none; fill-opacity:0; stroke-width: 2; stroke: #000000" points="568.973,-97.3557 576.879,-105.261 565.811,-106.843 "/>
  </g>
  <g>
    <rect style="fill: #ffffff" x="800" y="-420" width="237.05" height="54"/>
    <rect style="fill: none; fill-opacity:0; stroke-width: 2; stroke: #ff0000" x="800" y="-420" width="237.05" height="54"/>
    <text font-size="12.8" style="fill: #000000;text-anchor:middle;font-family:sans-serif;font-style:normal;font-weight:normal" x="918.525" y="-397.1">
      <tspan x="918.525" y="-397.1">CodeBlockExtractor</tspan>
      <tspan x="918.525" y="-381.1">KernelHaven_CodeBlockExtractor</tspan>
    </text>
  </g>
  <g>
    <rect style="fill: #ffffff" x="800" y="-360" width="245.3" height="54"/>
    <rect style="fill: none; fill-opacity:0; stroke-width: 2; stroke: #ff0000" x="800" y="-360" width="245.3" height="54"/>
    <text font-size="12.8" style="fill: #000000;text-anchor:middle;font-family:sans-serif;font-style:normal;font-weight:normal" x="922.65" y="-337.1">
      <tspan x="922.65" y="-337.1">KbuildMinerExtractor</tspan>
      <tspan x="922.65" y="-321.1">KernelHaven_KbuildMinerExtractor</tspan>
    </text>
  </g>
  <g>
    <rect style="fill: #ffffff" x="800" y="-300" width="263.1" height="54"/>
    <rect style="fill: none; fill-opacity:0; stroke-width: 2; stroke: #ff0000" x="800" y="-300" width="263.1" height="54"/>
    <text font-size="12.8" style="fill: #000000;text-anchor:middle;font-family:sans-serif;font-style:normal;font-weight:normal" x="931.55" y="-277.1">
      <tspan x="931.55" y="-277.1">KconfigReaderExtractor</tspan>
      <tspan x="931.55" y="-261.1">KernelHaven_KconfigReaderExtractor</tspan>
    </text>
  </g>
  <g>
    <rect style="fill: #ffffff" x="800" y="-240" width="204.6" height="54"/>
    <rect style="fill: none; fill-opacity:0; stroke-width: 2; stroke: #ff0000" x="800" y="-240" width="204.6" height="54"/>
    <text font-size="12.8" style="fill: #000000;text-anchor:middle;font-family:sans-serif;font-style:normal;font-weight:normal" x="902.3" y="-217.1">
      <tspan x="902.3" y="-217.1">srcMLExtractor</tspan>
      <tspan x="902.3" y="-201.1">KernelHaven_SrcMlExtractor</tspan>
    </text>
  </g>
  <g>
    <rect style="fill: #ffffff" x="800" y="-180" width="241.7" height="54"/>
    <rect style="fill: none; fill-opacity:0; stroke-width: 2; stroke: #ff0000" x="800" y="-180" width="241.7" height="54"/>
    <text font-size="12.8" style="fill: #000000;text-anchor:middle;font-family:sans-serif;font-style:normal;font-weight:normal" x="920.85" y="-157.1">
      <tspan x="920.85" y="-157.1">UndertakerExtractor</tspan>
      <tspan x="920.85" y="-141.1">KernelHaven_UndertakerExtractor</tspan>
    </text>
  </g>
  <g>
    <rect style="fill: #ffffff" x="800" y="-120" width="230.45" height="54"/>
    <rect style="fill: none; fill-opacity:0; stroke-width: 2; stroke: #ff0000" x="800" y="-120" width="230.45" height="54"/>
    <text font-size="12.8" style="fill: #000000;text-anchor:middle;font-family:sans-serif;font-style:normal;font-weight:normal" x="915.225" y="-97.1">
      <tspan x="915.225" y="-97.1">TypeChefExtractor</tspan>
      <tspan x="915.225" y="-81.1">KernelHaven_TypeChefExtractor</tspan>
    </text>
  </g>
  <g>
    <line style="fill: none; fill-opacity:0; stroke-width: 2; stroke: #000000" x1="799.002" y1="-111.224" x2="745.671" y2="-119.586"/>
    <polyline style="fill: none; fill-opacity:0; stroke-width: 2; stroke: #000000" points="754.116,-123.323 743.462,-119.933 752.567,-113.444 "/>
  </g>
  <g>
    <rect style="fill: #ffffff" x="220" y="-320" width="245.05" height="54"/>
    <rect style="fill: none; fill-opacity:0; stroke-width: 2; stroke: #000000" x="220" y="-320" width="245.05" height="54"/>
    <text font-size="12.8" style="fill: #000000;text-anchor:middle;font-family:sans-serif;font-style:normal;font-weight:normal" x="342.525" y="-297.1">
      <tspan x="342.525" y="-297.1">BusybootPreparation</tspan>
      <tspan x="342.525" y="-281.1">KernelHaven_BusybootPreparation</tspan>
    </text>
  </g>
  <text font-size="12.8" style="fill: #0000ff;text-anchor:start;font-family:sans-serif;font-style:normal;font-weight:normal" x="220" y="-400">
    <tspan x="220" y="-400">Utilities</tspan>
  </text>
  <text font-size="12.8" style="fill: #ff0000;text-anchor:start;font-family:sans-serif;font-style:normal;font-weight:normal" x="220" y="-380">
    <tspan x="220" y="-380">Extractor</tspan>
  </text>
  <text font-size="12.8" style="fill: #00ff00;text-anchor:start;font-family:sans-serif;font-style:normal;font-weight:normal" x="220" y="-360">
    <tspan x="220" y="-360">Analysis</tspan>
  </text>
  <text font-size="12.8" style="fill: #000000;text-anchor:start;font-family:sans-serif;font-style:normal;font-weight:normal" x="220" y="-340">
    <tspan x="220" y="-340">Preparation</tspan>
  </text>
  <text font-size="22.5778" style="fill: #000000;text-anchor:start;font-family:sans-serif;font-style:normal;font-weight:700" x="220" y="-440">
    <tspan x="220" y="-440">KernelHaven Plugins</tspan>
  </text>
  <text font-size="12.8" style="fill: #000000;text-anchor:start;font-family:sans-serif;font-style:normal;font-weight:normal" x="344" y="-368">
    <tspan x="344" y="-368">(all plugins depend on the</tspan>
    <tspan x="344" y="-352">main infrastructure)</tspan>
  </text>
  <g>
    <line style="fill: none; fill-opacity:0; stroke-width: 2; stroke: #000000" x1="344" y1="-404" x2="379.528" y2="-404"/>
    <polyline style="fill: none; fill-opacity:0; stroke-width: 2; stroke: #000000" points="371.764,-399 381.764,-404 371.764,-409 "/>
  </g>
  <text font-size="12.8" style="fill: #000000;text-anchor:start;font-family:sans-serif;font-style:normal;font-weight:normal" x="396" y="-400">
    <tspan x="396" y="-400">depends on</tspan>
  </text>
  <g>
    <rect style="fill: #ffffff" x="560" y="-420" width="105.4" height="54"/>
    <rect style="fill: none; fill-opacity:0; stroke-width: 2; stroke-dasharray: 4; stroke: #000000" x="560" y="-420" width="105.4" height="54"/>
    <text font-size="12.8" style="fill: #000000;text-anchor:middle;font-family:sans-serif;font-style:normal;font-weight:normal" x="612.7" y="-397.1">
      <tspan x="612.7" y="-397.1">ProjectName</tspan>
      <tspan x="612.7" y="-381.1">JenkinsName</tspan>
    </text>
  </g>
  <text font-size="12.8" style="fill: #000000;text-anchor:start;font-family:sans-serif;font-style:normal;font-weight:normal" x="560" y="-348">
    <tspan x="560" y="-348">(clickable links)</tspan>
  </text>
  <!-- BEGIN MANUAL JAVASCRIPT -->
	<script type="text/javascript">
	//<![CDATA[
		var gTags = document.getElementsByTagName("g");
		for (var i = 0; i < gTags.length; i++) {
			var tspans = gTags[i].querySelectorAll("text tspan");
			if (tspans.length == 2) {
				var projectName = tspans[0].innerHTML;
				var jenkinsName = tspans[1].innerHTML;
				
				if (projectName === "ProjectName") {
					continue;
				}
				
				tspans[0].innerHTML = "<a target=\"_blank\" href=\"https://github.com/KernelHaven/" + projectName + "/\">" + projectName + "</a>";
				tspans[1].innerHTML = "<a target=\"_blank\" href=\"https://jenkins.sse.uni-hildesheim.de/view/KernelHaven/job/" + jenkinsName + "/\">" + jenkinsName + "</a>";
			}
		}
	//]]>
	</script>
  <!-- END MANUAL JAVASCRIPT -->
</svg>
