<?xml version="1.0" encoding="UTF-8" standalone="no"?>
<!DOCTYPE svg PUBLIC "-//W3C//DTD SVG 1.0//EN" "http://www.w3.org/TR/2001/PR-SVG-20010719/DTD/svg10.dtd">
<svg width="40cm" height="25cm" viewBox="218 -461 783 497" xmlns="http://www.w3.org/2000/svg" xmlns:xlink="http://www.w3.org/1999/xlink">
  <g>
    <rect style="fill: #ffffff" x="560" y="-140" width="180" height="54"/>
    <rect style="fill: none; fill-opacity:0; stroke-width: 2; stroke: #0000ff" x="560" y="-140" width="180" height="54"/>
    <text font-size="12.8" style="fill: #000000;text-anchor:middle;font-family:sans-serif;font-style:normal;font-weight:normal" x="650" y="-117.1">
      <tspan x="650" y="-117.1">CnfUtils</tspan>
      <tspan x="650" y="-101.1">KH_CnfUtils</tspan>
    </text>
  </g>
  <g>
    <rect style="fill: #ffffff" x="560" y="-320" width="180" height="54"/>
    <rect style="fill: none; fill-opacity:0; stroke-width: 2; stroke: #0000ff" x="560" y="-320" width="180" height="54"/>
    <text font-size="12.8" style="fill: #000000;text-anchor:middle;font-family:sans-serif;font-style:normal;font-weight:normal" x="650" y="-297.1">
      <tspan x="650" y="-297.1">IOUtils</tspan>
      <tspan x="650" y="-281.1">KH_IOUtils</tspan>
    </text>
  </g>
  <g>
    <rect style="fill: #ffffff" x="220" y="-260" width="260" height="54"/>
    <rect style="fill: none; fill-opacity:0; stroke-width: 2; stroke: #000000" x="220" y="-260" width="260" height="54"/>
    <text font-size="12.8" style="fill: #000000;text-anchor:middle;font-family:sans-serif;font-style:normal;font-weight:normal" x="350" y="-237.1">
      <tspan x="350" y="-237.1">NonBooleanUtils</tspan>
      <tspan x="350" y="-221.1">KH_NonBooleanUtils</tspan>
    </text>
  </g>
  <g>
    <rect style="fill: #ffffff" x="560" y="-200" width="180" height="54"/>
    <rect style="fill: none; fill-opacity:0; stroke-width: 2; stroke: #0000ff" x="560" y="-200" width="180" height="54"/>
    <text font-size="12.8" style="fill: #000000;text-anchor:middle;font-family:sans-serif;font-style:normal;font-weight:normal" x="650" y="-177.1">
      <tspan x="650" y="-177.1">DBUtils</tspan>
      <tspan x="650" y="-161.1">KH_DBUtils</tspan>
    </text>
  </g>
  <g>
    <rect style="fill: #ffffff" x="540" y="-60" width="220" height="54"/>
    <rect style="fill: none; fill-opacity:0; stroke-width: 2; stroke: #00ff00" x="540" y="-60" width="220" height="54"/>
    <text font-size="12.8" style="fill: #000000;text-anchor:middle;font-family:sans-serif;font-style:normal;font-weight:normal" x="650" y="-37.1">
      <tspan x="650" y="-37.1">FeatureEffectAnalysis</tspan>
      <tspan x="650" y="-21.1">KH_FeatureEffectAnalysis</tspan>
    </text>
  </g>
  <g>
    <line style="fill: none; fill-opacity:0; stroke-width: 2; stroke: #000000" x1="650" y1="-60" x2="650" y2="-81.5279"/>
    <polyline style="fill: none; fill-opacity:0; stroke-width: 2; stroke: #000000" points="655,-73.7639 650,-83.7639 645,-73.7639 "/>
  </g>
  <g>
    <rect style="fill: #ffffff" x="220" y="-200" width="260" height="54"/>
    <rect style="fill: none; fill-opacity:0; stroke-width: 2; stroke: #00ff00" x="220" y="-200" width="260" height="54"/>
    <text font-size="12.8" style="fill: #000000;text-anchor:middle;font-family:sans-serif;font-style:normal;font-weight:normal" x="350" y="-177.1">
      <tspan x="350" y="-177.1">MetricHaven</tspan>
      <tspan x="350" y="-161.1">KH_MetricHaven</tspan>
    </text>
  </g>
  <g>
    <rect style="fill: #ffffff" x="220" y="-140" width="260" height="54"/>
    <rect style="fill: none; fill-opacity:0; stroke-width: 2; stroke: #00ff00" x="220" y="-140" width="260" height="54"/>
    <text font-size="12.8" style="fill: #000000;text-anchor:middle;font-family:sans-serif;font-style:normal;font-weight:normal" x="350" y="-117.1">
      <tspan x="350" y="-117.1">UnDeadAnalyzer</tspan>
      <tspan x="350" y="-101.1">KH_UnDeadAnalyzer</tspan>
    </text>
  </g>
  <g>
    <line style="fill: none; fill-opacity:0; stroke-width: 2; stroke: #000000" x1="480" y1="-113" x2="555.528" y2="-113"/>
    <polyline style="fill: none; fill-opacity:0; stroke-width: 2; stroke: #000000" points="547.764,-108 557.764,-113 547.764,-118 "/>
  </g>
  <g>
    <rect style="fill: #ffffff" x="220" y="-80" width="260" height="54"/>
    <rect style="fill: none; fill-opacity:0; stroke-width: 2; stroke: #00ff00" x="220" y="-80" width="260" height="54"/>
    <text font-size="12.8" style="fill: #000000;text-anchor:middle;font-family:sans-serif;font-style:normal;font-weight:normal" x="350" y="-57.1">
      <tspan x="350" y="-57.1">ConfigurationMismatchAnalysis</tspan>
      <tspan x="350" y="-41.1">KH_ConfigurationMismatchAnalysis</tspan>
    </text>
  </g>
  <g>
    <line style="fill: none; fill-opacity:0; stroke-width: 2; stroke: #000000" x1="480" y1="-53" x2="535.757" y2="-34.4142"/>
    <polyline style="fill: none; fill-opacity:0; stroke-width: 2; stroke: #000000" points="526.811,-32.126 537.879,-33.7071 529.973,-41.6128 "/>
  </g>
  <g>
    <line style="fill: none; fill-opacity:0; stroke-width: 2; stroke: #000000" x1="480" y1="-66.5" x2="555.866" y2="-97.7946"/>
    <polyline style="fill: none; fill-opacity:0; stroke-width: 2; stroke: #000000" points="550.595,-90.2118 557.933,-98.6473 546.782,-99.4562 "/>
  </g>
  <g>
    <rect style="fill: #ffffff" x="800" y="-260" width="200" height="54"/>
    <rect style="fill: none; fill-opacity:0; stroke-width: 2; stroke: #ff0000" x="800" y="-260" width="200" height="54"/>
    <text font-size="12.8" style="fill: #000000;text-anchor:middle;font-family:sans-serif;font-style:normal;font-weight:normal" x="900" y="-237.1">
      <tspan x="900" y="-237.1">CodeBlockExtractor</tspan>
      <tspan x="900" y="-221.1">KH_CodeBlockExtractor</tspan>
    </text>
  </g>
  <g>
    <rect style="fill: #ffffff" x="800" y="-320" width="200" height="54"/>
    <rect style="fill: none; fill-opacity:0; stroke-width: 2; stroke: #ff0000" x="800" y="-320" width="200" height="54"/>
    <text font-size="12.8" style="fill: #000000;text-anchor:middle;font-family:sans-serif;font-style:normal;font-weight:normal" x="900" y="-297.1">
      <tspan x="900" y="-297.1">KbuildMinerExtractor</tspan>
      <tspan x="900" y="-281.1">KH_KbuildMinerExtractor</tspan>
    </text>
  </g>
  <g>
    <rect style="fill: #ffffff" x="800" y="-380" width="200" height="54"/>
    <rect style="fill: none; fill-opacity:0; stroke-width: 2; stroke: #ff0000" x="800" y="-380" width="200" height="54"/>
    <text font-size="12.8" style="fill: #000000;text-anchor:middle;font-family:sans-serif;font-style:normal;font-weight:normal" x="900" y="-357.1">
      <tspan x="900" y="-357.1">KconfigReaderExtractor</tspan>
      <tspan x="900" y="-341.1">KH_KconfigReaderExtractor</tspan>
    </text>
  </g>
  <g>
    <rect style="fill: #ffffff" x="800" y="-200" width="200" height="54"/>
    <rect style="fill: none; fill-opacity:0; stroke-width: 2; stroke: #ff0000" x="800" y="-200" width="200" height="54"/>
    <text font-size="12.8" style="fill: #000000;text-anchor:middle;font-family:sans-serif;font-style:normal;font-weight:normal" x="900" y="-177.1">
      <tspan x="900" y="-177.1">srcMLExtractor</tspan>
      <tspan x="900" y="-161.1">KH_SrcMlExtractor</tspan>
    </text>
  </g>
  <g>
    <rect style="fill: #ffffff" x="800" y="-80" width="200" height="54"/>
    <rect style="fill: none; fill-opacity:0; stroke-width: 2; stroke: #ff0000" x="800" y="-80" width="200" height="54"/>
    <text font-size="12.8" style="fill: #000000;text-anchor:middle;font-family:sans-serif;font-style:normal;font-weight:normal" x="900" y="-57.1">
      <tspan x="900" y="-57.1">UndertakerExtractor</tspan>
      <tspan x="900" y="-41.1">KH_UndertakerExtractor</tspan>
    </text>
  </g>
  <g>
    <rect style="fill: #ffffff" x="800" y="-140" width="200" height="54"/>
    <rect style="fill: none; fill-opacity:0; stroke-width: 2; stroke: #ff0000" x="800" y="-140" width="200" height="54"/>
    <text font-size="12.8" style="fill: #000000;text-anchor:middle;font-family:sans-serif;font-style:normal;font-weight:normal" x="900" y="-117.1">
      <tspan x="900" y="-117.1">TypeChefExtractor</tspan>
      <tspan x="900" y="-101.1">KH_TypeChefExtractor</tspan>
    </text>
  </g>
  <g>
    <line style="fill: none; fill-opacity:0; stroke-width: 2; stroke: #000000" x1="800" y1="-113" x2="744.472" y2="-113"/>
    <polyline style="fill: none; fill-opacity:0; stroke-width: 2; stroke: #000000" points="752.236,-118 742.236,-113 752.236,-108 "/>
  </g>
  <g>
    <rect style="fill: #ffffff" x="220" y="-320" width="260" height="54"/>
    <rect style="fill: none; fill-opacity:0; stroke-width: 2; stroke: #000000" x="220" y="-320" width="260" height="54"/>
    <text font-size="12.8" style="fill: #000000;text-anchor:middle;font-family:sans-serif;font-style:normal;font-weight:normal" x="350" y="-297.1">
      <tspan x="350" y="-297.1">BusybootPreparation</tspan>
      <tspan x="350" y="-281.1">KH_BusybootPreparation</tspan>
    </text>
  </g>
  <text font-size="12.8" style="fill: #0000ff;text-anchor:start;font-family:sans-serif;font-style:normal;font-weight:normal" x="220" y="-400">
    <tspan x="220" y="-400">Utilities</tspan>
  </text>
  <text font-size="12.8" style="fill: #ff0000;text-anchor:start;font-family:sans-serif;font-style:normal;font-weight:normal" x="220" y="-380">
    <tspan x="220" y="-380">Extractor</tspan>
  </text>
  <text font-size="12.8" style="fill: #00ff00;text-anchor:start;font-family:sans-serif;font-style:normal;font-weight:normal" x="220" y="-360">
    <tspan x="220" y="-360">Analysis</tspan>
  </text>
  <text font-size="12.8" style="fill: #000000;text-anchor:start;font-family:sans-serif;font-style:normal;font-weight:normal" x="220" y="-340">
    <tspan x="220" y="-340">Preparation</tspan>
  </text>
  <text font-size="22.5778" style="fill: #000000;text-anchor:start;font-family:sans-serif;font-style:normal;font-weight:700" x="220" y="-440">
    <tspan x="220" y="-440">KernelHaven Plugins</tspan>
  </text>
  <text font-size="12.8" style="fill: #000000;text-anchor:start;font-family:sans-serif;font-style:normal;font-weight:normal" x="344" y="-368">
    <tspan x="344" y="-368">(all plugins depend on the</tspan>
    <tspan x="344" y="-352">main infrastructure)</tspan>
  </text>
  <g>
    <line style="fill: none; fill-opacity:0; stroke-width: 2; stroke: #000000" x1="344" y1="-404" x2="379.528" y2="-404"/>
    <polyline style="fill: none; fill-opacity:0; stroke-width: 2; stroke: #000000" points="371.764,-399 381.764,-404 371.764,-409 "/>
  </g>
  <text font-size="12.8" style="fill: #000000;text-anchor:start;font-family:sans-serif;font-style:normal;font-weight:normal" x="396" y="-400">
    <tspan x="396" y="-400">depends on</tspan>
  </text>
  <g>
    <rect style="fill: #ffffff" x="560" y="-420" width="105.4" height="54"/>
    <rect style="fill: none; fill-opacity:0; stroke-width: 2; stroke-dasharray: 4; stroke: #000000" x="560" y="-420" width="105.4" height="54"/>
    <text font-size="12.8" style="fill: #000000;text-anchor:middle;font-family:sans-serif;font-style:normal;font-weight:normal" x="612.7" y="-397.1">
      <tspan x="612.7" y="-397.1">ProjectName</tspan>
      <tspan x="612.7" y="-381.1">JenkinsName</tspan>
    </text>
  </g>
  <text font-size="12.8" style="fill: #000000;text-anchor:start;font-family:sans-serif;font-style:normal;font-weight:normal" x="560" y="-348">
    <tspan x="560" y="-348">(clickable links)</tspan>
  </text>
  <g>
    <rect style="fill: #ffffff" x="220" y="-20" width="260" height="54"/>
    <rect style="fill: none; fill-opacity:0; stroke-width: 2; stroke: #00ff00" x="220" y="-20" width="260" height="54"/>
    <text font-size="12.8" style="fill: #000000;text-anchor:middle;font-family:sans-serif;font-style:normal;font-weight:normal" x="350" y="2.9">
      <tspan x="350" y="2.9">EntityLocatorAnalysis</tspan>
      <tspan x="350" y="18.9">KH_EntityLocatorAnalysis</tspan>
    </text>
  </g>
  <g>
    <rect style="fill: #ffffff" x="560" y="-260" width="180" height="54"/>
    <rect style="fill: none; fill-opacity:0; stroke-width: 2; stroke: #0000ff" x="560" y="-260" width="180" height="54"/>
    <text font-size="12.8" style="fill: #000000;text-anchor:middle;font-family:sans-serif;font-style:normal;font-weight:normal" x="650" y="-237.1">
      <tspan x="650" y="-237.1">CppUtils</tspan>
      <tspan x="650" y="-221.1">KH_CppUtils</tspan>
    </text>
  </g>
  <g>
    <line style="fill: none; fill-opacity:0; stroke-width: 2; stroke: #000000" x1="800" y1="-233" x2="744.472" y2="-233"/>
    <polyline style="fill: none; fill-opacity:0; stroke-width: 2; stroke: #000000" points="752.236,-238 742.236,-233 752.236,-228 "/>
  </g>
  <g>
    <line style="fill: none; fill-opacity:0; stroke-width: 2; stroke: #000000" x1="800" y1="-173" x2="743.535" y2="-216.76"/>
    <polyline style="fill: none; fill-opacity:0; stroke-width: 2; stroke: #000000" points="752.734,-215.957 741.767,-218.13 746.609,-208.052 "/>
  </g>
  <g>
    <line style="fill: none; fill-opacity:0; stroke-width: 2; stroke: #000000" x1="480" y1="-186.5" x2="555.866" y2="-217.795"/>
    <polyline style="fill: none; fill-opacity:0; stroke-width: 2; stroke: #000000" points="550.595,-210.212 557.933,-218.647 546.782,-219.456 "/>
  </g>
  <g>
    <line style="fill: none; fill-opacity:0; stroke-width: 2; stroke: #000000" x1="480" y1="-233" x2="554.531" y2="-233"/>
    <polyline style="fill: none; fill-opacity:0; stroke-width: 2; stroke: #000000" points="546.767,-228 556.767,-233 546.767,-238 "/>
  </g>
    <!-- BEGIN MANUAL JAVASCRIPT -->
	<script type="text/javascript">
	//<![CDATA[
		var gTags = document.getElementsByTagName("g");
		for (var i = 0; i < gTags.length; i++) {
			var tspans = gTags[i].querySelectorAll("text tspan");
			if (tspans.length == 2) {
				var projectName = tspans[0].innerHTML;
				var jenkinsName = tspans[1].innerHTML;
				
				if (projectName === "ProjectName") {
					continue;
				}
				
				tspans[0].innerHTML = "<a target=\"_blank\" href=\"https://github.com/KernelHaven/" + projectName + "/\">" + projectName + "</a>";
				tspans[1].innerHTML = "<a target=\"_blank\" href=\"https://jenkins-2.sse.uni-hildesheim.de/job/" + jenkinsName + "/\">" + jenkinsName + "</a>";
			}
		}
	//]]>
	</script>
  <!-- END MANUAL JAVASCRIPT -->
</svg>
